HIERARCHY
ROOT Hips
{
	OFFSET -0.001795 -0.223333 0.028219
	CHANNELS 6 Xposition Yposition Zposition Zrotation Yrotation Xrotation 
	JOINT LeftUpLeg
	{
		OFFSET 0.069520 -0.091406 -0.006815
		CHANNELS 3 Zrotation Yrotation Xrotation
		JOINT LeftLeg
		{
			OFFSET 0.034277 -0.375199 -0.004496
			CHANNELS 3 Zrotation Yrotation Xrotation
			JOINT LeftFoot
			{
				OFFSET -0.013596 -0.397961 -0.043693
				CHANNELS 3 Zrotation Yrotation Xrotation
				JOINT LeftToe
				{
					OFFSET 0.026358 -0.055791 0.119288
					CHANNELS 3 Zrotation Yrotation Xrotation
					End Site
					{
						OFFSET 0.000000 0.000000 0.000000
					}
				}
			}
		}
	}
	JOINT RightUpLeg
	{
		OFFSET -0.067670 -0.090522 -0.004320
		CHANNELS 3 Zrotation Yrotation Xrotation
		JOINT RightLeg
		{
			OFFSET -0.038290 -0.382569 -0.008850
			CHANNELS 3 Zrotation Yrotation Xrotation
			JOINT RightFoot
			{
				OFFSET 0.015774 -0.398415 -0.042312
				CHANNELS 3 Zrotation Yrotation Xrotation
				JOINT RightToe
				{
					OFFSET -0.025372 -0.048144 0.123348
					CHANNELS 3 Zrotation Yrotation Xrotation
					End Site
					{
						OFFSET 0.000000 0.000000 0.000000
					}
				}
			}
		}
	}
	JOINT Spine
	{
		OFFSET -0.002533 0.108963 -0.026696
		CHANNELS 3 Zrotation Yrotation Xrotation
		JOINT Spine1
		{
			OFFSET 0.005487 0.135180 0.001092
			CHANNELS 3 Zrotation Yrotation Xrotation
			JOINT Spine2
			{
				OFFSET 0.001457 0.052922 0.025425
				CHANNELS 3 Zrotation Yrotation Xrotation
				JOINT Neck
				{
					OFFSET -0.002778 0.213870 -0.042857
					CHANNELS 3 Zrotation Yrotation Xrotation
					JOINT Head
					{
						OFFSET 0.005152 0.064970 0.051349
						CHANNELS 3 Zrotation Yrotation Xrotation
						End Site
						{
							OFFSET 0.000000 0.000000 0.000000
						}
					}
				}
				JOINT LeftShoulder
				{
					OFFSET 0.078845 0.121749 -0.034090
					CHANNELS 3 Zrotation Yrotation Xrotation
					JOINT LeftArm
					{
						OFFSET 0.090977 0.030469 -0.008868
						CHANNELS 3 Zrotation Yrotation Xrotation
						JOINT LeftForeArm
						{
							OFFSET 0.259612 -0.012772 -0.027456
							CHANNELS 3 Zrotation Yrotation Xrotation
							JOINT LeftHand
							{
								OFFSET 0.249234 0.008986 -0.001171
								CHANNELS 3 Zrotation Yrotation Xrotation
								End Site
								{
									OFFSET 0.000000 0.000000 0.000000
								}
							}
						}
					}
				}
				JOINT RightShoulder
				{
					OFFSET -0.081759 0.118833 -0.038615
					CHANNELS 3 Zrotation Yrotation Xrotation
					JOINT RightArm
					{
						OFFSET -0.096012 0.032551 -0.009143
						CHANNELS 3 Zrotation Yrotation Xrotation
						JOINT RightForeArm
						{
							OFFSET -0.253742 -0.013329 -0.021401
							CHANNELS 3 Zrotation Yrotation Xrotation
							JOINT RightHand
							{
								OFFSET -0.255298 0.007772 -0.005559
								CHANNELS 3 Zrotation Yrotation Xrotation
								End Site
								{
									OFFSET 0.000000 0.000000 0.000000
								}
							}
						}
					}
				}
			}
		}
	}
}
MOTION
Frames: 12
Frame Time: 0.050000
0.000000 0.924100 0.000000 -3.485254 -13.121640 2.323020 2.860736 -0.695131 -13.257605 1.558906 -0.291395 28.369551 1.043468 0.235604 -6.728380 0.000000 0.000000 0.000000 4.550289 1.520028 -11.801864 -5.646598 5.093094 32.168686 1.278216 10.303756 -7.233224 0.000000 0.000000 0.000000 3.493233 -0.699496 10.877546 -2.981827 1.617739 3.256008 -3.136745 2.360923 3.537815 8.151849 -4.828714 -11.008003 0.000000 0.000000 0.000000 -13.012691 -23.006477 10.586352 -49.042886 -38.384455 10.508467 21.951127 -33.612654 -4.926321 0.000000 0.000000 0.000000 12.039528 20.077113 7.690610 62.870379 39.041343 16.033712 -25.590532 44.042969 -8.866633 0.000000 0.000000 0.000000 
-0.003646 0.927564 0.004070 -3.450081 -13.319476 1.008914 3.208605 -0.547355 -10.824407 1.324892 -0.227832 27.148746 0.814318 -0.442896 -7.138110 0.000000 0.000000 0.000000 4.466207 1.110578 -9.157519 -5.056164 4.414582 29.685467 1.497822 10.875314 -7.128906 0.000000 0.000000 0.000000 4.086199 -0.597042 8.246101 -1.934231 1.026721 2.189225 -4.405542 3.805759 5.413529 9.395677 -5.359908 -12.745532 0.000000 0.000000 0.000000 -11.458678 -22.929838 9.987459 -49.824913 -39.602058 11.150634 24.311442 -37.732172 -6.465108 0.000000 0.000000 0.000000 10.683645 17.019040 6.439442 65.838624 39.246767 17.058513 -23.912566 46.386703 -8.379557 0.000000 0.000000 0.000000 
-0.006843 0.930836 0.008670 -2.861204 -11.538618 -0.431466 2.763374 -0.463227 -7.853118 1.837611 -0.637953 24.269933 0.182521 -2.531285 -7.924568 0.000000 0.000000 0.000000 4.355577 0.668964 -6.040887 -5.993506 4.131859 26.941964 1.968655 10.828537 -6.001895 0.000000 0.000000 0.000000 4.842088 -0.480900 5.945846 -1.813563 0.893209 0.618286 -4.894917 4.492847 7.111045 8.800501 -4.906549 -12.891166 0.000000 0.000000 0.000000 -10.960234 -22.321498 9.346012 -51.830967 -41.825940 12.690874 25.154854 -38.557133 -7.020211 0.000000 0.000000 0.000000 9.933417 14.702039 5.600665 65.497652 40.314826 17.620259 -22.473440 47.757384 -7.722475 0.000000 0.000000 0.000000 
-0.009157 0.932586 0.012465 -2.239996 -11.003631 -1.882550 2.343639 -0.318898 -5.029689 1.589707 -0.614280 22.634691 -0.243351 -3.815601 -8.158506 0.000000 0.000000 0.000000 3.506788 0.395871 -4.006912 -5.473604 3.839100 26.519165 2.192026 11.917576 -6.436357 0.000000 0.000000 0.000000 4.598349 -0.336585 4.404546 -1.684411 0.860878 1.699227 -5.087030 5.113619 6.560286 8.186488 -4.595160 -11.706919 0.000000 0.000000 0.000000 -9.578387 -21.320266 8.469384 -54.517287 -43.634433 14.569737 29.256828 -40.769777 -9.170431 0.000000 0.000000 0.000000 9.238000 13.125876 5.000921 67.609264 40.664765 18.857823 -25.552561 48.964782 -9.165332 0.000000 0.000000 0.000000 
-0.010352 0.933669 0.014883 -1.573535 -9.288109 -3.062665 2.127476 -0.209940 -3.264540 0.815978 -0.480785 21.098424 -0.491915 -4.496777 -7.781304 0.000000 0.000000 0.000000 2.605980 0.103730 -1.483475 -5.368863 3.390811 24.568900 1.897827 11.165469 -6.771985 0.000000 0.000000 0.000000 4.638892 -0.200581 2.806267 -2.078251 1.047716 1.591409 -5.037708 5.409100 6.630969 8.518598 -4.841258 -11.150155 0.000000 0.000000 0.000000 -10.307612 -20.739144 8.078514 -55.989784 -44.100678 15.265365 31.463260 -43.401848 -10.913754 0.000000 0.000000 0.000000 9.779943 12.009244 4.703017 67.824972 40.611646 19.055561 -27.808669 49.432333 -10.064074 0.000000 0.000000 0.000000 
-0.010767 0.934189 0.014968 -1.333679 -7.382592 -3.562490 1.811272 -0.151738 -2.256645 0.642694 -0.529773 19.759163 -0.858694 -5.502810 -7.460006 0.000000 0.000000 0.000000 2.011538 -0.005725 -0.357050 -4.350598 2.817045 23.613666 1.596286 10.198741 -6.958678 0.000000 0.000000 0.000000 4.740352 -0.132220 2.009282 -1.940808 0.961804 1.269863 -4.977077 5.468769 6.433586 7.999985 -4.599577 -10.057350 0.000000 0.000000 0.000000 -11.290462 -19.539183 7.415677 -57.846391 -44.066964 15.865992 32.636633 -46.843994 -12.622717 0.000000 0.000000 0.000000 9.640703 12.054722 4.869091 67.808381 41.432886 19.802812 -31.998589 48.027620 -11.368763 0.000000 0.000000 0.000000 
-0.010662 0.933533 0.012274 -0.760148 -6.308782 -4.462888 1.068291 -0.101753 -1.385985 1.022555 -0.687740 19.065904 -1.108525 -5.867407 -6.781570 0.000000 0.000000 0.000000 1.308410 -0.058153 0.326597 -3.635538 2.506346 23.380053 1.138756 9.014643 -7.333661 0.000000 0.000000 0.000000 4.799718 -0.043456 1.088111 -2.230159 1.105651 1.304622 -5.190117 6.136826 6.423725 8.752104 -4.979906 -10.366341 0.000000 0.000000 0.000000 -11.968565 -19.209539 7.058332 -58.763163 -44.005910 16.065391 34.147308 -47.603573 -13.817415 0.000000 0.000000 0.000000 10.335272 11.627487 4.919968 67.951990 42.979397 21.131464 -35.896147 44.201404 -11.620975 0.000000 0.000000 0.000000 
-0.010608 0.933021 0.007624 -0.467264 -5.710517 -5.381290 0.808323 -0.071013 -0.977831 1.172443 -0.759236 18.949856 -1.196400 -6.170507 -6.810469 0.000000 0.000000 0.000000 0.700540 -0.067315 0.587081 -3.045379 2.354657 24.003962 0.947042 8.317862 -7.314098 0.000000 0.000000 0.000000 5.212677 0.019544 0.563461 -2.652585 1.326066 1.632646 -5.087053 6.182668 6.508802 8.493969 -5.061431 -8.987768 0.000000 0.000000 0.000000 -13.020288 -19.168523 7.025755 -58.776255 -43.713604 15.889757 35.326521 -48.131547 -14.628010 0.000000 0.000000 0.000000 10.522076 12.044063 5.182632 69.255027 44.641719 22.972336 -39.445491 40.545114 -11.694033 0.000000 0.000000 0.000000 
-0.010885 0.933006 0.002535 -0.210538 -5.359990 -5.963476 0.465519 -0.063105 -0.815194 1.417462 -0.843988 18.821183 -1.725026 -7.168633 -6.204211 0.000000 0.000000 0.000000 0.743881 -0.027304 0.197678 -2.832157 2.321824 24.532652 0.743399 7.271221 -6.922411 0.000000 0.000000 0.000000 5.398530 0.105018 -0.259077 -2.876354 1.455556 2.254574 -5.226005 6.651893 6.356252 8.995487 -5.582101 -8.036726 0.000000 0.000000 0.000000 -13.303244 -19.427920 7.008309 -58.962248 -43.161610 15.598072 36.830249 -47.709328 -15.363143 0.000000 0.000000 0.000000 11.005389 11.559920 5.115567 70.299402 45.659369 24.349686 -41.249956 37.632803 -11.167925 0.000000 0.000000 0.000000 
-0.011707 0.932529 -0.002442 -0.270354 -5.390535 -6.648722 0.830697 -0.016335 -0.391992 1.180319 -0.776372 18.792136 -1.343528 -6.324953 -6.390072 0.000000 0.000000 0.000000 0.757037 -0.012335 0.067190 -2.976045 2.386357 24.655060 0.659311 6.593395 -6.456809 0.000000 0.000000 0.000000 5.619356 0.160938 -0.672749 -2.934515 1.485462 2.180011 -5.016162 7.078629 6.781383 9.329598 -6.209197 -6.394701 0.000000 0.000000 0.000000 -14.170035 -19.696964 7.106434 -58.652586 -42.407770 15.019475 36.711862 -47.851706 -15.422382 0.000000 0.000000 0.000000 10.986647 11.780688 5.285755 71.168669 46.503396 25.446422 -43.243085 35.937363 -11.081835 0.000000 0.000000 0.000000 
-0.012807 0.931149 -0.007495 -0.586824 -5.638506 -7.152883 1.646816 -0.029673 -0.803013 0.705482 -0.661362 20.338219 -1.041764 -5.824993 -6.851777 0.000000 0.000000 0.000000 1.437233 -0.009381 -0.029419 -3.204170 2.522538 25.094195 0.686034 6.799090 -6.574979 0.000000 0.000000 0.000000 6.121915 0.232395 -1.145726 -3.103979 1.586486 2.562428 -4.816061 6.985816 6.540471 9.396149 -6.462994 -5.556273 0.000000 0.000000 0.000000 -13.725009 -20.159668 7.340633 -58.378365 -41.707424 14.537499 36.045185 -47.204425 -14.857369 0.000000 0.000000 0.000000 10.880335 12.115879 5.392213 72.128284 47.321359 26.584544 -43.644199 34.561580 -10.748549 0.000000 0.000000 0.000000 
-0.013730 0.927685 -0.012106 -1.160377 -6.615635 -8.048052 2.243132 -0.026373 -1.109782 0.731080 -0.659571 22.846037 -0.156828 -4.516472 -8.712669 0.000000 0.000000 0.000000 2.255405 -0.038071 0.178924 -3.296810 2.722206 26.044145 0.665283 7.254389 -7.043575 0.000000 0.000000 0.000000 6.606625 0.260454 -1.020331 -3.002891 1.537672 2.413404 -4.430664 7.514895 7.195122 9.723014 -7.236210 -3.621227 0.000000 0.000000 0.000000 -13.138837 -20.843226 7.652882 -57.163416 -40.953660 13.625035 34.058172 -46.585498 -13.686621 0.000000 0.000000 0.000000 11.695189 12.988902 5.894123 70.909279 47.957985 26.308023 -43.322877 33.523279 -10.246370 0.000000 0.000000 0.000000 
